<?xml version="1.0" encoding="utf-8"?>
<!-- Generator: Adobe Illustrator 23.1.0, SVG Export Plug-In . SVG Version: 6.00 Build 0)  -->
<svg version="1.1" id="Calque_1" xmlns="http://www.w3.org/2000/svg" xmlns:xlink="http://www.w3.org/1999/xlink" x="0px" y="0px"
	 viewBox="0 0 322 330" style="enable-background:new 0 0 322 330;" xml:space="preserve">
<style type="text/css">
	.st0{fill:url(#SVGID_1_);}
</style>
<linearGradient id="SVGID_1_" gradientUnits="userSpaceOnUse" x1="39.4166" y1="166.7397" x2="272.4191" y2="166.7397">
	<stop  offset="0" style="stop-color:#3BE3CC"/>
	<stop  offset="1" style="stop-color:#429CD6"/>
</linearGradient>
<path class="st0" d="M272.42,166.51c-0.03-17.31-3.78-33.96-11.13-49.5c-0.02-0.04-0.03-0.08-0.05-0.12
	c-0.04-0.08-0.08-0.16-0.12-0.24c0,0,0-0.01-0.01-0.01c0,0,0-0.01-0.01-0.01c-0.42-0.89-0.87-1.79-1.32-2.68
	c-0.19-0.36-0.38-0.73-0.57-1.09l-0.19-0.35l-0.09-0.17c-0.22-0.41-0.43-0.82-0.65-1.23c0-0.01-0.01-0.02-0.01-0.02l0,0
	c0,0,0,0,0-0.01l-0.06-0.11c-0.08-0.15-0.16-0.31-0.25-0.46c-0.06-0.12-0.13-0.23-0.2-0.35c-3.6-6.46-7.84-12.59-12.62-18.27
	c-0.11-0.15-0.22-0.3-0.34-0.44c-0.14-0.16-0.28-0.32-0.42-0.48c0,0,0,0,0,0l0,0c0,0,0,0,0,0c0-0.01-0.01-0.01-0.01-0.02l-0.08-0.09
	l-0.12-0.14c0,0,0,0,0,0c-0.98-1.13-1.86-2.12-2.7-3.03c-0.29-0.31-0.58-0.62-0.88-0.93l-0.25-0.26c-0.85-0.9-1.7-1.76-2.52-2.58
	l-0.12-0.13c-0.14-0.15-0.28-0.29-0.43-0.44c-0.01-0.01-0.02-0.02-0.03-0.03l-0.01-0.01c-0.01-0.01-0.02-0.02-0.03-0.03l-0.05-0.05
	c-0.13-0.13-0.27-0.26-0.41-0.38c-0.56-0.54-1.08-1.03-1.58-1.5c-1.73-1.6-3.93-2.4-6.12-2.4c-2.23,0-4.47,0.83-6.2,2.48
	c-3.44,3.28-3.75,8.67-0.69,12.31c12.43,14.81,19.27,33.63,19.27,52.99c0,69.05-44.32,100.5-85.5,100.5
	c-10.13,0-20.03-1.87-29.41-5.55c-2.65-1.04-5.3-2.26-7.89-3.61l-0.28-0.14l-0.12-0.06c-0.65-0.34-1.34-0.73-2.18-1.21l-0.13-0.07
	l-0.47-0.27c-0.71-0.41-1.42-0.84-2.09-1.26l-0.36-0.23l-0.18-0.11c-0.85-0.54-1.52-0.98-2.14-1.4l-0.17-0.12
	c-3.15-2.16-6.17-4.57-9-7.16l-0.17-0.15l-0.1-0.1c-0.62-0.57-1.26-1.19-1.91-1.83l-0.31-0.31c-0.69-0.69-1.3-1.32-1.88-1.94
	l-0.11-0.12c-2.6-2.79-5.02-5.79-7.2-8.91c-5.51-9.54-8.41-20.4-8.41-31.44c0-32.13,24.18-58.73,55.3-62.53v98.79
	c0,4.47,3.28,8.26,7.7,8.91c3.83,0.56,7.7,0.84,11.49,0.84c8.62,0,17.14-1.4,25.33-4.16c3.66-1.23,6.13-4.67,6.13-8.53V80.98
	c0.03-0.29,0.04-0.59,0.04-0.88V61.6c0-4.2-2.9-7.83-6.97-8.77c-0.07-0.02-0.14-0.03-0.2-0.04c-7.58-1.61-15.38-2.46-23.2-2.54
	c-0.03,0-0.06,0-0.09,0c-3.52,0-6.72,2.06-8.19,5.26c-6.57,14.41-21.04,23.72-36.86,23.72c-6.6,0-12.91-1.55-18.74-4.6
	c-1.31-0.69-2.75-1.03-4.17-1.03c-2,0-3.98,0.67-5.61,1.96c-1.66,1.32-3.3,2.71-4.9,4.13c-0.81,0.53-1.52,1.18-2.12,1.94
	c-11.36,10.62-20.35,23.17-26.72,37.31c-6.79,15.07-10.23,31.14-10.23,47.79c0,29.29,10.91,57.28,30.72,78.83
	c0.74,0.8,1.53,1.64,2.42,2.55l0.06,0.07l0.35,0.35c1.65,1.67,3.38,3.32,5.13,4.89l0.48,0.43c0.96,0.85,1.83,1.6,2.65,2.29
	c6.16,5.15,12.86,9.67,19.92,13.43c0.02,0.01,0.05,0.03,0.07,0.04c0,0,0,0,0.01,0c0,0,0,0,0,0c0,0,0,0,0.01,0c0,0,0.01,0,0.01,0
	c0,0,0,0,0,0c0.01,0.01,0.02,0.01,0.03,0.02c0.84,0.45,1.75,0.91,2.77,1.42c0.22,0.11,0.44,0.22,0.66,0.33l0.11,0.05
	c0.79,0.39,1.59,0.76,2.39,1.13l0.2,0.09c0.15,0.07,0.31,0.14,0.46,0.21c1.03,0.47,2.05,0.91,3.03,1.32l0.35,0.14l0.12,0.05
	c0.85,0.35,1.74,0.71,2.63,1.05c0.28,0.11,0.55,0.21,0.83,0.32c0.9,0.34,1.81,0.67,2.69,0.98l0.12,0.04l0.34,0.12
	c1.03,0.35,2.1,0.71,3.2,1.05c0.15,0.05,0.31,0.09,0.46,0.14l0.2,0.06c0.87,0.27,1.74,0.52,2.62,0.77l0.14,0.04
	c0.23,0.06,0.45,0.13,0.68,0.19c5.45,1.48,11.04,2.57,16.64,3.25c1.16,0.54,2.45,0.84,3.8,0.84h10.2c6.15,0,12.34-0.49,18.39-1.45
	c1.46-0.23,3-0.51,4.72-0.86l0.23-0.05c0.17-0.03,0.35-0.07,0.52-0.1l0.07-0.01c0.13-0.03,0.26-0.05,0.39-0.08
	c1.28-0.27,2.62-0.58,4.1-0.96c0,0,0,0,0,0l0.15-0.04l0.4-0.1c0.25-0.06,0.5-0.13,0.74-0.2l0.33-0.09c1.01-0.27,2.02-0.55,3-0.84
	c0,0,0,0,0,0l0.21-0.06c0.21-0.06,0.42-0.12,0.63-0.18c0.16-0.05,0.32-0.1,0.48-0.15l0.17-0.05c1.55-0.48,2.91-0.93,4.17-1.37
	c0.03-0.01,0.06-0.02,0.09-0.03l0.06-0.02c6.17-2.18,12.22-4.92,17.96-8.13c1.13-0.63,2.34-1.34,3.69-2.16
	c0.33-0.2,0.65-0.4,0.98-0.61l0.25-0.16c0.87-0.54,1.74-1.11,2.59-1.67l0.25-0.17c0.31-0.21,0.62-0.41,0.93-0.62
	c1.31-0.89,2.45-1.7,3.49-2.46c28.66-21.09,45.92-53.5,47.4-88.95c0-0.05,0.01-0.11,0.01-0.16l0-0.03c0.01-0.13,0.01-0.26,0.01-0.39
	c0.02-0.5,0.03-1,0.05-1.5c0,0,0,0,0,0c0-0.01,0-0.01,0-0.02c0.03-0.97,0.04-1.81,0.04-2.59c0-0.08,0-0.15,0-0.23
	C272.42,166.66,272.42,166.58,272.42,166.51z M173.22,270.17c-11.59,2.79-23.77,3.39-35.77,1.76c-12-1.62-23.78-5.53-34.52-11.53
	c-10.75-5.98-20.44-14.05-28.38-23.68c-7.96-9.63-14.17-20.83-18.12-32.89c-3.94-12.06-5.71-24.94-4.97-37.78
	c0.72-12.84,3.74-25.72,9.23-37.6c5.44-11.89,22.83-31.87,22.83-31.87c2.21-1.98,5.12-3.19,8.33-3.19c6.9,0,12.5,5.6,12.5,12.5
	c0,4.82-2.73,8.99-6.72,11.08c-6.87,6.05-12.79,13.27-17.41,21.34c-5.19,8.98-8.55,19.06-10.09,29.5
	c-1.56,10.46-1.07,21.31,1.34,31.76c2.42,10.47,6.85,20.57,13.04,29.6c6.18,9.03,14.12,16.99,23.34,23.25
	c9.2,6.27,19.67,10.85,30.72,13.36c11.04,2.52,22.67,3.02,34.07,1.33c11.41-1.65,22.57-5.56,32.75-11.36
	C195.76,262.43,184.82,267.43,173.22,270.17z"/>
</svg>
