<?xml version="1.0" encoding="utf-8"?>
<!-- Generator: Adobe Illustrator 23.1.0, SVG Export Plug-In . SVG Version: 6.00 Build 0)  -->
<svg version="1.1" id="Calque_1" xmlns="http://www.w3.org/2000/svg" xmlns:xlink="http://www.w3.org/1999/xlink" x="0px" y="0px"
	 viewBox="0 0 403.89 241.6" style="enable-background:new 0 0 403.89 241.6;" xml:space="preserve">
<style type="text/css">
	.st0{fill:none;stroke:#000000;stroke-miterlimit:10;}
</style>
<g>
	<g>
		<path d="M156.12,41.5v9.69h-20.59h-1v1v21.25v1h1h14.77v9.69h-14.77h-1v1v31.89h-9.69V41.5H156.12 M157.12,40.5h-33.27v77.51
			h11.69V85.13h15.77V73.44h-15.77V52.19h21.59V40.5L157.12,40.5z"/>
	</g>
	<g>
		<path d="M175.84,41.5v75.51h-9.69V41.5H175.84 M176.84,40.5h-11.69v77.51h11.69V40.5L176.84,40.5z"/>
	</g>
	<g>
		<path d="M205.69,41.5c6.17,0,10.74,1.7,13.56,5.05c2.52,2.94,3.8,7.13,3.8,12.44v11.26c0,5.25-1.93,9.55-5.91,13.16l-0.45,0.4
			l0.15,0.58l8.34,32.62h-10.53l-6.94-28.52l-0.2-0.83l-0.85,0.07c-0.32,0.03-0.65,0.04-0.97,0.04h-6.7h-1v1v28.24h-9.69V41.5
			H205.69 M197.98,78.22h1h7.03c2.13,0,3.96-0.77,5.44-2.28c1.47-1.5,2.21-3.33,2.21-5.44V59.2c0-5.07-2.65-7.76-7.65-7.76h-7.03h-1
			v1v24.78V78.22 M205.69,40.5h-18.4v77.51h11.69V88.78h6.7c0.37,0,0.72-0.02,1.06-0.04l7.13,29.28h12.61l-8.66-33.87
			c4.16-3.77,6.24-8.4,6.24-13.9V58.99c0-5.58-1.35-9.95-4.04-13.09C216.98,42.3,212.21,40.5,205.69,40.5L205.69,40.5z
			 M198.98,77.22V52.45h7.03c4.43,0,6.65,2.25,6.65,6.76v11.3c0,1.84-0.64,3.42-1.93,4.74c-1.29,1.32-2.86,1.97-4.72,1.97H198.98
			L198.98,77.22z"/>
	</g>
	<g>
		<path d="M251.72,40.57c3.95,0,7.38,0.89,10.18,2.65c2.14,1.35,3.89,3.26,5.22,5.69c1.22,2.23,2.01,4.8,2.37,7.65l-9.26,1.68
			c-0.42-2.86-1.37-5.17-2.81-6.86c-1.27-1.54-3.09-2.32-5.4-2.32c-2.49,0-4.43,1.12-5.75,3.34c-1,1.68-1.5,3.77-1.5,6.21
			c0,3.76,1.62,7.62,4.82,11.48c1.2,1.43,2.99,3.13,5.31,5.06c2.68,2.23,4.47,3.81,5.33,4.69c2.79,2.81,4.98,5.62,6.51,8.33
			c0.71,1.26,1.29,2.45,1.73,3.54c1.05,2.62,1.62,5.01,1.67,7.08c0.08,5.16-1.27,9.61-4.02,13.25c-1.76,2.41-4.29,4.14-7.53,5.12
			c-1.77,0.56-3.85,0.85-6.2,0.85c-4.35,0-7.98-1.08-10.79-3.2c-2.35-1.76-4.25-4.18-5.64-7.21c-1.3-2.81-2.1-6.06-2.39-9.68
			l9.15-0.63c0.59,4.23,1.86,7.38,3.74,9.38c1.51,1.66,3.28,2.5,5.26,2.5c0.11,0,0.22,0,0.32-0.01c2.89-0.1,5.22-1.51,6.92-4.19
			c0.9-1.38,1.35-3.29,1.35-5.69c0-3.5-1.56-6.97-4.64-10.32l-0.02-0.03l-0.03-0.02c-2.32-2.18-5.79-5.45-10.4-9.81
			c-3.79-3.65-6.48-6.95-8.01-9.81c-1.65-3.19-2.48-6.69-2.48-10.42c0-6.79,2.19-11.77,6.7-15.22
			C244.16,41.6,247.62,40.57,251.72,40.57 M251.72,39.57c-4.33,0-7.96,1.09-10.88,3.27c-4.73,3.63-7.1,8.97-7.1,16.02
			c0,3.91,0.87,7.54,2.59,10.88c1.59,2.98,4.32,6.33,8.2,10.07c4.62,4.36,8.09,7.63,10.41,9.82c2.92,3.17,4.38,6.39,4.38,9.65
			c0,2.21-0.4,3.92-1.19,5.14c-1.53,2.41-3.57,3.65-6.12,3.74c-0.09,0-0.19,0.01-0.28,0.01c-1.7,0-3.21-0.72-4.52-2.17
			c-1.9-2.01-3.1-5.27-3.61-9.78l-11.09,0.77c0.23,4.16,1.08,7.84,2.55,11.03c1.47,3.19,3.46,5.72,5.95,7.59
			c3,2.27,6.8,3.4,11.39,3.4c2.47,0,4.63-0.3,6.5-0.89c3.46-1.05,6.13-2.88,8.03-5.48c2.89-3.82,4.29-8.44,4.21-13.85
			c-0.06-2.21-0.64-4.69-1.74-7.44c-0.45-1.13-1.05-2.35-1.79-3.66c-1.59-2.81-3.81-5.65-6.67-8.54c-0.88-0.91-2.68-2.49-5.4-4.76
			c-2.3-1.9-4.02-3.54-5.19-4.93c-3.06-3.68-4.59-7.29-4.59-10.84c0-2.27,0.45-4.17,1.36-5.7c1.13-1.9,2.76-2.85,4.89-2.85
			c2.01,0,3.55,0.65,4.63,1.95c1.5,1.76,2.41,4.22,2.72,7.39l11.22-2.04c-0.31-3.37-1.18-6.35-2.59-8.95
			c-1.42-2.59-3.27-4.61-5.57-6.06C259.45,40.5,255.88,39.57,251.72,39.57L251.72,39.57z"/>
	</g>
	<g>
		<path d="M314.63,41.5v9.69h-11.37h-1v1v64.83h-9.69V52.19v-1h-1h-11.41V41.5H314.63 M315.63,40.5h-36.46v11.69h12.41v65.83h11.69
			V52.19h12.37V40.5L315.63,40.5z"/>
	</g>
</g>
<g>
	<g>
		<path d="M160.56,185.55c0,5.1-1.8,9.46-5.4,13.09c-3.6,3.63-7.92,5.44-12.96,5.44h-18.36v-77.51h18.36c5.1,0,9.44,1.81,13,5.44
			c3.57,3.63,5.36,7.97,5.36,13.05V185.55z M135.53,192.51h7.03c1.86,0,3.43-0.67,4.7-2.02c1.27-1.34,1.91-2.93,1.91-4.74v-40.54
			c0-1.84-0.65-3.42-1.95-4.74c-1.3-1.32-2.85-1.98-4.66-1.98h-7.03V192.51z"/>
	</g>
	<g>
		<path d="M182.49,204.07H170.8v-77.51h11.69V204.07z"/>
	</g>
	<g>
		<path d="M211.34,205.05c-5.16,0-9.53-1.81-13.13-5.44c-3.6-3.63-5.4-7.98-5.4-13.05v-42.46c0-5.13,1.81-9.5,5.44-13.11
			c3.63-3.61,7.99-5.42,13.09-5.42c5.15,0,9.52,1.81,13.11,5.44c3.58,3.63,5.37,7.99,5.37,13.09v8.84h-12.11v-9.05
			c0-1.87-0.66-3.46-1.97-4.78c-1.32-1.32-2.91-1.98-4.78-1.98c-1.84,0-3.41,0.66-4.72,1.98c-1.3,1.32-1.95,2.91-1.95,4.78v42.54
			c0,1.87,0.65,3.46,1.95,4.76c1.3,1.3,2.87,1.96,4.72,1.96c1.87,0,3.46-0.65,4.78-1.96c1.32-1.3,1.97-2.89,1.97-4.76v-15.26h-6.5
			v-11.69h18.61v27.07c0,5.16-1.81,9.53-5.44,13.11C220.76,203.26,216.41,205.05,211.34,205.05z"/>
	</g>
	<g>
		<path d="M251.63,204.07h-11.69v-77.51h11.69V204.07z"/>
	</g>
	<g>
		<path d="M273.43,138.24h-12.41v-11.69h36.46v11.69h-12.37v65.83h-11.69V138.24z"/>
	</g>
	<g>
		<path d="M311.25,186.27l-2.85,17.81h-12.15l13.13-77.51h16.1l12.96,77.51h-12.24l-2.76-17.81H311.25z M317.37,144.32l-4.33,30.56
			h8.67L317.37,144.32z"/>
	</g>
	<g>
		<path d="M380.18,204.07h-31.87v-77.51H360v65.91h20.19V204.07z"/>
	</g>
</g>
<g>
	<path d="M44.91,203.94V78.76H24.22V61.64c5.82-0.65,11.4-2.87,16.72-6.64c5.32-3.77,9.17-8.34,11.55-13.69h17.12v162.63H44.91z"/>
</g>
<line class="st0" x1="96.33" y1="41.61" x2="96.33" y2="203.94"/>
<path class="st0" d="M368.61,155.92c11.85,11.83,23.48,24.55,34.78,38.24v46.94H0.5V0.54c0,0,72.22-2.39,164.9,29.44"/>
</svg>
