<?xml version="1.0" encoding="utf-8"?>
<!-- Generator: Adobe Illustrator 22.0.1, SVG Export Plug-In . SVG Version: 6.00 Build 0)  -->
<svg version="1.1" id="Calque_1" xmlns="http://www.w3.org/2000/svg" xmlns:xlink="http://www.w3.org/1999/xlink" x="0px" y="0px"
	 viewBox="0 0 207 124" style="enable-background:new 0 0 207 124;" xml:space="preserve">
<style type="text/css">
	.st0{fill:none;stroke:#000000;stroke-miterlimit:10;}
</style>
<g>
	<g>
		<path d="M79.6,22v4h-10h-1v1v10.9v1h1h7.1v4h-7.1h-1v1v15.8h-4V22H79.6 M80.6,21h-17v39.6h6V43.8h8.1v-6h-8.1V26.9h11V21L80.6,21z
			"/>
	</g>
	<g>
		<path d="M89.7,22v37.6h-4V22H89.7 M90.7,21h-6v39.6h6V21L90.7,21z"/>
	</g>
	<g>
		<path d="M105.4,22c3,0,5.2,0.8,6.6,2.4c1.2,1.4,1.8,3.4,1.8,6v5.8c0,2.5-0.9,4.6-2.9,6.4l-0.4,0.4l0.1,0.6l4.1,16.1h-4.4
			l-3.5-14.2l-0.2-0.8l-0.9,0.1c-0.1,0-0.3,0-0.5,0H102h-1v1v13.9h-4V22H105.4 M101,40.7h1h3.6c1.2,0,2.3-0.4,3.1-1.3
			c0.8-0.9,1.3-1.9,1.3-3.1v-5.8c0-2.9-1.6-4.5-4.4-4.5H102h-1v1v12.7V40.7 M105.4,21H96v39.6h6V45.6h3.4c0.2,0,0.4,0,0.5,0l3.6,15
			h6.4l-4.4-17.3c2.1-1.9,3.2-4.3,3.2-7.1v-5.8c0-2.9-0.7-5.1-2.1-6.7C111.2,21.9,108.7,21,105.4,21L105.4,21z M102,39.7V27.1h3.6
			c2.3,0,3.4,1.2,3.4,3.5v5.8c0,0.9-0.3,1.7-1,2.4c-0.7,0.7-1.5,1-2.4,1H102L102,39.7z"/>
	</g>
	<g>
		<path d="M128.9,21.5c1.9,0,3.6,0.4,4.9,1.3c1,0.6,1.9,1.6,2.5,2.7c0.5,1,0.9,2.1,1.1,3.3l-3.8,0.7c-0.3-1.3-0.8-2.4-1.5-3.2
			c-0.7-0.9-1.8-1.4-3.1-1.4c-1.4,0-2.6,0.7-3.4,1.9c-0.6,0.9-0.8,2.1-0.8,3.4c0,2,0.9,4.1,2.6,6.2c0.6,0.8,1.5,1.6,2.8,2.6
			c1.4,1.1,2.3,1.9,2.7,2.4c1.4,1.4,2.5,2.8,3.3,4.2c0.4,0.6,0.6,1.2,0.9,1.8c0.5,1.3,0.8,2.5,0.8,3.4c0,2.5-0.6,4.7-2,6.5
			c-0.8,1.2-2,2-3.6,2.4c-0.9,0.3-1.9,0.4-3,0.4c-2.1,0-3.9-0.5-5.2-1.5c-1.1-0.9-2.1-2-2.7-3.5c-0.6-1.3-1-2.7-1.1-4.3l3.7-0.3
			c0.3,2.1,1,3.6,2,4.6c0.9,1,1.9,1.4,3.1,1.4c0.1,0,0.1,0,0.2,0c1.6-0.1,3-0.9,3.9-2.4c0.5-0.8,0.8-1.8,0.8-3.2
			c0-1.9-0.8-3.8-2.5-5.6l0,0l0,0c-1.2-1.1-3-2.8-5.3-5c-1.9-1.8-3.2-3.5-4-4.9c-0.8-1.6-1.2-3.3-1.2-5.1c0-3.3,1.1-5.7,3.2-7.4
			C125.3,22,127,21.5,128.9,21.5 M128.9,20.5c-2.2,0-4.1,0.6-5.6,1.7c-2.4,1.9-3.6,4.6-3.6,8.2c0,2,0.4,3.9,1.3,5.6
			c0.8,1.5,2.2,3.2,4.2,5.2c2.4,2.2,4.1,3.9,5.3,5c1.5,1.6,2.2,3.3,2.2,4.9c0,1.1-0.2,2-0.6,2.6c-0.8,1.2-1.8,1.9-3.1,1.9
			c0,0-0.1,0-0.1,0c-0.9,0-1.6-0.4-2.3-1.1c-1-1-1.6-2.7-1.8-5l-5.7,0.4c0.1,2.1,0.6,4,1.3,5.6s1.8,2.9,3,3.9
			c1.5,1.2,3.5,1.7,5.8,1.7c1.3,0,2.4-0.2,3.3-0.5c1.8-0.5,3.1-1.5,4.1-2.8c1.5-2,2.2-4.3,2.2-7.1c0-1.1-0.3-2.4-0.9-3.8
			c-0.2-0.6-0.5-1.2-0.9-1.9c-0.8-1.4-1.9-2.9-3.4-4.4c-0.4-0.5-1.4-1.3-2.8-2.4c-1.2-1-2.1-1.8-2.7-2.5c-1.6-1.9-2.3-3.7-2.3-5.5
			c0-1.2,0.2-2.1,0.7-2.9c0.6-1,1.4-1.5,2.5-1.5c1,0,1.8,0.3,2.4,1c0.8,0.9,1.2,2.2,1.4,3.8l5.7-1c-0.2-1.7-0.6-3.2-1.3-4.6
			c-0.7-1.3-1.7-2.4-2.8-3.1C132.9,21,131.1,20.5,128.9,20.5L128.9,20.5z"/>
	</g>
	<g>
		<path d="M160.6,22v4h-5.3h-1v1v32.7h-4V26.9v-1h-1H144v-4H160.6 M161.6,21H143v6h6.3v33.7h6V26.9h6.3V21L161.6,21z"/>
	</g>
</g>
<g>
	<g>
		<path d="M82.3,95.1c0,2.6-0.9,4.8-2.8,6.7c-1.8,1.9-4,2.8-6.6,2.8h-9.4V65H73c2.6,0,4.8,0.9,6.6,2.8s2.7,4.1,2.7,6.7V95.1z
			 M69.5,98.7h3.6c1,0,1.8-0.3,2.4-1c0.7-0.7,1-1.5,1-2.4V74.5c0-0.9-0.3-1.7-1-2.4c-0.7-0.7-1.5-1-2.4-1h-3.6V98.7z"/>
	</g>
	<g>
		<path d="M93.6,104.6h-6V65h6V104.6z"/>
	</g>
	<g>
		<path d="M108.3,105.1c-2.6,0-4.9-0.9-6.7-2.8s-2.8-4.1-2.8-6.7V73.9c0-2.6,0.9-4.9,2.8-6.7c1.9-1.8,4.1-2.8,6.7-2.8
			c2.6,0,4.9,0.9,6.7,2.8c1.8,1.9,2.7,4.1,2.7,6.7v4.5h-6.2v-4.6c0-1-0.3-1.8-1-2.4c-0.7-0.7-1.5-1-2.4-1c-0.9,0-1.7,0.3-2.4,1
			c-0.7,0.7-1,1.5-1,2.4v21.8c0,1,0.3,1.8,1,2.4c0.7,0.7,1.5,1,2.4,1c1,0,1.8-0.3,2.4-1c0.7-0.7,1-1.5,1-2.4v-7.8h-3.3v-6h9.5v13.8
			c0,2.6-0.9,4.9-2.8,6.7C113.1,104.2,110.9,105.1,108.3,105.1z"/>
	</g>
	<g>
		<path d="M128.9,104.6h-6V65h6V104.6z"/>
	</g>
	<g>
		<path d="M140.1,70.9h-6.3v-6h18.6v6H146v33.7h-6V70.9z"/>
	</g>
	<g>
		<path d="M159.4,95.5l-1.5,9.1h-6.2l6.7-39.6h8.2l6.6,39.6H167l-1.4-9.1H159.4z M162.5,74l-2.2,15.6h4.4L162.5,74z"/>
	</g>
	<g>
		<path d="M194.6,104.6h-16.3V65h6v33.7h10.3V104.6z"/>
	</g>
</g>
<g>
	<path d="M23.2,104.5v-64H12.6v-8.8c3-0.3,5.8-1.5,8.5-3.4c2.7-1.9,4.7-4.3,5.9-7h8.8v83.2H23.2z"/>
</g>
<line class="st0" x1="49.5" y1="21.5" x2="49.5" y2="104.5"/>
<path class="st0" d="M188.7,80c6.1,6,12,12.6,17.8,19.6v24H0.5V0.5c0,0,36.9-1.2,84.3,15.1"/>
</svg>
